<?xml version="1.0" encoding="UTF-8"?>
<svg xmlns="http://www.w3.org/2000/svg" xmlns:xlink="http://www.w3.org/1999/xlink" width="22px" height="19px" viewBox="0 0 22 19" version="1.1">
<g id="surface1">
<path style=" stroke:none;fill-rule:nonzero;fill:rgb(67.450982%,70.19608%,61.960787%);fill-opacity:1;" d="M 0 0 C 7.261719 0 14.519531 0 22 0 C 22 6.269531 22 12.539062 22 19 C 14.738281 19 7.480469 19 0 19 C 0 12.730469 0 6.460938 0 0 Z M 0 0 "/>
<path style=" stroke:none;fill-rule:nonzero;fill:rgb(96.862745%,96.862745%,93.725491%);fill-opacity:1;" d="M 15.683594 9.003906 C 15.738281 9.023438 15.738281 9.023438 15.765625 9.046875 C 15.78125 9.246094 15.734375 9.402344 15.621094 9.5625 C 15.320312 9.921875 14.882812 10.125 14.453125 10.277344 C 14.335938 10.320312 14.226562 10.371094 14.117188 10.429688 C 14.21875 10.453125 14.316406 10.460938 14.417969 10.472656 C 15.058594 10.527344 15.605469 10.648438 16.042969 11.152344 C 16.109375 11.238281 16.140625 11.28125 16.128906 11.390625 C 16.113281 11.460938 16.113281 11.460938 16.089844 11.484375 C 15.957031 11.5 15.871094 11.484375 15.75 11.429688 C 15.722656 11.417969 15.699219 11.40625 15.671875 11.394531 C 15.519531 11.328125 15.367188 11.257812 15.214844 11.1875 C 14.960938 11.066406 14.710938 10.957031 14.4375 10.878906 C 14.40625 10.871094 14.40625 10.871094 14.371094 10.863281 C 14.304688 10.84375 14.234375 10.824219 14.167969 10.808594 C 14.148438 10.800781 14.125 10.796875 14.105469 10.789062 C 13.679688 10.679688 13.339844 10.710938 12.914062 10.800781 C 12.808594 10.824219 12.703125 10.84375 12.597656 10.855469 C 12.605469 10.871094 12.613281 10.886719 12.621094 10.902344 C 12.671875 11.011719 12.65625 11.136719 12.628906 11.257812 C 12.585938 11.328125 12.550781 11.351562 12.472656 11.386719 C 12.3125 11.410156 12.179688 11.378906 12.046875 11.285156 C 12.007812 11.203125 12.019531 11.121094 12.023438 11.03125 C 11.917969 11.054688 11.820312 11.082031 11.722656 11.132812 C 11.6875 11.191406 11.671875 11.238281 11.660156 11.304688 C 11.644531 11.371094 11.628906 11.394531 11.574219 11.433594 C 11.503906 11.445312 11.503906 11.445312 11.425781 11.445312 C 11.402344 11.445312 11.375 11.445312 11.347656 11.445312 C 11.265625 11.433594 11.222656 11.402344 11.148438 11.359375 C 11 11.359375 10.855469 11.4375 10.726562 11.503906 C 10.660156 11.53125 10.601562 11.554688 10.535156 11.574219 C 10.515625 11.582031 10.492188 11.589844 10.472656 11.597656 C 10.457031 11.601562 10.441406 11.605469 10.425781 11.609375 C 10.457031 11.609375 10.492188 11.609375 10.523438 11.609375 C 12.226562 11.597656 13.902344 11.757812 15.515625 12.34375 C 15.589844 12.367188 15.65625 12.375 15.734375 12.378906 C 15.761719 12.382812 15.789062 12.382812 15.816406 12.386719 C 15.84375 12.386719 15.875 12.386719 15.902344 12.390625 C 16.125 12.40625 16.34375 12.421875 16.5625 12.464844 C 16.578125 12.46875 16.59375 12.472656 16.613281 12.472656 C 17.386719 12.605469 18.117188 12.960938 18.777344 13.378906 C 18.941406 13.484375 19.105469 13.578125 19.273438 13.675781 C 19.3125 13.695312 19.3125 13.695312 19.351562 13.71875 C 19.386719 13.742188 19.386719 13.742188 19.421875 13.761719 C 19.480469 13.796875 19.480469 13.796875 19.53125 13.847656 C 19.535156 13.914062 19.535156 13.914062 19.53125 13.972656 C 19.488281 14.015625 19.441406 14.003906 19.382812 14.003906 C 19.167969 14.003906 18.957031 13.960938 18.746094 13.921875 C 18.714844 13.914062 18.714844 13.914062 18.683594 13.90625 C 18.359375 13.847656 18.046875 13.777344 17.734375 13.671875 C 17.714844 13.664062 17.695312 13.660156 17.675781 13.652344 C 17.019531 13.429688 16.425781 13.097656 15.839844 12.726562 C 15.433594 12.46875 14.96875 12.351562 14.507812 12.238281 C 14.472656 12.230469 14.472656 12.230469 14.441406 12.222656 C 13.921875 12.09375 13.402344 11.984375 12.871094 11.9375 C 12.886719 11.949219 12.902344 11.957031 12.921875 11.96875 C 13.175781 12.128906 13.414062 12.3125 13.644531 12.503906 C 13.667969 12.523438 13.695312 12.546875 13.71875 12.566406 C 13.738281 12.582031 13.753906 12.597656 13.773438 12.613281 C 13.925781 12.742188 14.082031 12.832031 14.265625 12.914062 C 14.65625 13.097656 15.035156 13.296875 15.390625 13.546875 C 15.414062 13.5625 15.4375 13.578125 15.464844 13.597656 C 15.488281 13.613281 15.507812 13.628906 15.535156 13.644531 C 15.554688 13.65625 15.574219 13.671875 15.59375 13.6875 C 15.609375 13.699219 15.625 13.710938 15.640625 13.722656 C 15.640625 13.738281 15.640625 13.753906 15.640625 13.773438 C 15.660156 13.78125 15.660156 13.78125 15.683594 13.792969 C 15.945312 13.9375 16.21875 14.300781 16.335938 14.578125 C 16.351562 14.652344 16.347656 14.699219 16.335938 14.777344 C 16.289062 14.828125 16.289062 14.828125 16.195312 14.84375 C 15.898438 14.835938 15.609375 14.554688 15.390625 14.375 C 15.355469 14.347656 15.355469 14.347656 15.320312 14.320312 C 15.253906 14.265625 15.183594 14.207031 15.117188 14.148438 C 15.101562 14.136719 15.089844 14.128906 15.074219 14.117188 C 14.777344 13.863281 14.496094 13.601562 14.222656 13.324219 C 14.207031 13.308594 14.191406 13.292969 14.175781 13.277344 C 14.101562 13.199219 14.023438 13.121094 13.949219 13.042969 C 13.78125 12.875 13.609375 12.714844 13.417969 12.566406 C 13.398438 12.550781 13.382812 12.535156 13.363281 12.519531 C 13.308594 12.480469 13.257812 12.441406 13.207031 12.402344 C 13.1875 12.390625 13.171875 12.375 13.152344 12.363281 C 13.066406 12.296875 13.066406 12.296875 12.96875 12.238281 C 12.96875 12.222656 12.96875 12.207031 12.96875 12.1875 C 12.9375 12.179688 12.90625 12.171875 12.871094 12.164062 C 12.988281 12.300781 13.109375 12.433594 13.234375 12.566406 C 13.34375 12.683594 13.449219 12.800781 13.554688 12.921875 C 13.59375 12.96875 13.636719 13.011719 13.683594 13.054688 C 13.808594 13.179688 13.9375 13.335938 13.949219 13.519531 C 13.949219 13.589844 13.949219 13.613281 13.90625 13.671875 C 13.792969 13.71875 13.679688 13.71875 13.566406 13.679688 C 13.453125 13.628906 13.375 13.5625 13.292969 13.472656 C 13.265625 13.445312 13.265625 13.445312 13.238281 13.421875 C 13.136719 13.316406 13.070312 13.1875 12.996094 13.0625 C 12.980469 13.035156 12.964844 13.003906 12.945312 12.976562 C 12.792969 12.714844 12.648438 12.449219 12.507812 12.179688 C 12.460938 12.09375 12.414062 12.015625 12.367188 11.933594 C 12.347656 11.886719 12.347656 11.886719 12.347656 11.835938 C 11.527344 11.792969 10.699219 11.78125 9.878906 11.855469 C 9.800781 11.863281 9.71875 11.867188 9.640625 11.871094 C 9.425781 11.886719 9.214844 11.917969 9.003906 11.949219 C 8.9375 11.960938 8.867188 11.972656 8.800781 11.980469 C 8.753906 11.988281 8.710938 11.996094 8.667969 12 C 8.648438 12.003906 8.625 12.007812 8.605469 12.011719 C 8.484375 12.027344 8.363281 12.050781 8.238281 12.078125 C 8.179688 12.089844 8.121094 12.089844 8.058594 12.089844 C 8.058594 12.105469 8.058594 12.121094 8.058594 12.140625 C 8.074219 12.144531 8.09375 12.148438 8.113281 12.15625 C 8.207031 12.203125 8.222656 12.246094 8.257812 12.339844 C 8.261719 12.4375 8.261719 12.4375 8.257812 12.515625 C 8.277344 12.515625 8.300781 12.519531 8.324219 12.519531 C 8.425781 12.546875 8.464844 12.585938 8.53125 12.667969 C 8.53125 12.683594 8.53125 12.699219 8.53125 12.71875 C 8.550781 12.714844 8.566406 12.710938 8.585938 12.707031 C 8.988281 12.644531 9.398438 12.613281 9.804688 12.609375 C 9.832031 12.609375 9.855469 12.609375 9.882812 12.605469 C 10.015625 12.605469 10.113281 12.613281 10.226562 12.691406 C 10.257812 12.777344 10.257812 12.777344 10.25 12.867188 C 10.15625 12.976562 10.070312 13.011719 9.925781 13.042969 C 9.859375 13.042969 9.792969 13.042969 9.726562 13.035156 C 9.710938 13.035156 9.691406 13.035156 9.675781 13.03125 C 9.601562 13.027344 9.527344 13.019531 9.453125 13.003906 C 9.359375 12.992188 9.273438 12.992188 9.179688 12.992188 C 9.195312 12.996094 9.210938 13 9.226562 13 C 11.167969 13.359375 11.167969 13.359375 11.445312 13.671875 C 11.472656 13.722656 11.472656 13.722656 11.476562 13.785156 C 11.445312 13.859375 11.410156 13.894531 11.335938 13.929688 C 10.796875 14.085938 10.144531 13.734375 9.683594 13.480469 C 9.648438 13.460938 9.613281 13.441406 9.578125 13.421875 C 9.589844 13.4375 9.601562 13.453125 9.613281 13.472656 C 9.78125 13.730469 9.933594 14.03125 9.902344 14.351562 C 9.871094 14.398438 9.871094 14.398438 9.828125 14.425781 C 9.757812 14.433594 9.71875 14.433594 9.65625 14.398438 C 9.355469 14.097656 9.164062 13.683594 8.96875 13.3125 C 8.957031 13.289062 8.945312 13.269531 8.933594 13.25 C 8.910156 13.207031 8.890625 13.164062 8.867188 13.121094 C 8.816406 13.046875 8.757812 13.03125 8.675781 13 C 8.648438 12.988281 8.621094 12.976562 8.59375 12.964844 C 8.574219 12.957031 8.550781 12.949219 8.53125 12.941406 C 8.523438 12.957031 8.519531 12.972656 8.511719 12.988281 C 8.453125 13.089844 8.339844 13.113281 8.230469 13.144531 C 8.132812 13.148438 8.132812 13.148438 8.058594 13.117188 C 7.957031 13.007812 7.941406 12.910156 7.933594 12.765625 C 7.851562 12.757812 7.765625 12.75 7.683594 12.742188 C 7.6875 12.777344 7.695312 12.808594 7.703125 12.847656 C 7.710938 12.933594 7.710938 12.984375 7.65625 13.054688 C 7.535156 13.160156 7.417969 13.183594 7.261719 13.179688 C 7.1875 13.164062 7.144531 13.132812 7.105469 13.070312 C 7.0625 12.964844 7.066406 12.851562 7.082031 12.742188 C 7.101562 12.707031 7.117188 12.675781 7.132812 12.640625 C 6.378906 12.621094 6.378906 12.621094 5.65625 12.8125 C 5.574219 12.847656 5.488281 12.882812 5.40625 12.917969 C 4.992188 13.085938 4.589844 13.269531 4.191406 13.472656 C 4.164062 13.484375 4.136719 13.5 4.109375 13.511719 C 3.824219 13.65625 3.542969 13.800781 3.285156 13.988281 C 3.21875 14.023438 3.21875 14.023438 3.144531 14.015625 C 3.128906 14.011719 3.109375 14.003906 3.09375 14 C 3.085938 13.964844 3.078125 13.933594 3.066406 13.898438 C 3.238281 13.773438 3.414062 13.664062 3.601562 13.566406 C 3.636719 13.542969 3.636719 13.542969 3.679688 13.523438 C 3.804688 13.453125 3.929688 13.386719 4.058594 13.320312 C 4.320312 13.1875 4.558594 13.046875 4.789062 12.867188 C 4.808594 12.851562 4.832031 12.835938 4.855469 12.816406 C 4.917969 12.769531 4.976562 12.71875 5.039062 12.667969 C 5.050781 12.65625 5.066406 12.644531 5.078125 12.632812 C 5.4375 12.332031 5.761719 12.011719 6.011719 11.609375 C 6 11.601562 5.988281 11.59375 5.976562 11.582031 C 5.851562 11.484375 5.773438 11.398438 5.75 11.234375 C 5.765625 11.136719 5.792969 11.101562 5.863281 11.03125 C 5.964844 10.96875 6.039062 10.941406 6.160156 10.957031 C 6.242188 10.996094 6.300781 11.042969 6.359375 11.109375 C 6.363281 11.085938 6.363281 11.085938 6.371094 11.066406 C 6.386719 11.007812 6.40625 10.960938 6.433594 10.90625 C 6.410156 10.90625 6.382812 10.90625 6.359375 10.902344 C 6.242188 10.878906 6.191406 10.84375 6.109375 10.757812 C 6.058594 10.65625 6.011719 10.566406 6.035156 10.453125 C 6.113281 10.359375 6.195312 10.296875 6.3125 10.253906 C 6.339844 10.257812 6.367188 10.257812 6.398438 10.261719 C 6.484375 10.261719 6.484375 10.261719 6.527344 10.214844 C 6.550781 10.183594 6.578125 10.152344 6.601562 10.117188 C 6.636719 10.078125 6.636719 10.078125 6.710938 10.054688 C 6.835938 10.042969 6.910156 10.046875 7.007812 10.128906 C 7.09375 10.246094 7.132812 10.328125 7.109375 10.480469 C 7.054688 10.566406 7.007812 10.625 6.910156 10.65625 C 6.84375 10.660156 6.777344 10.660156 6.710938 10.65625 C 6.710938 10.671875 6.710938 10.6875 6.710938 10.707031 C 6.738281 10.703125 6.769531 10.699219 6.800781 10.699219 C 6.882812 10.699219 6.929688 10.710938 6.992188 10.761719 C 7.082031 10.859375 7.105469 10.917969 7.121094 11.046875 C 7.109375 11.132812 7.109375 11.132812 7.054688 11.203125 C 6.945312 11.289062 6.855469 11.316406 6.71875 11.320312 C 6.695312 11.320312 6.671875 11.320312 6.648438 11.320312 C 6.585938 11.308594 6.585938 11.308594 6.511719 11.210938 C 6.460938 11.292969 6.410156 11.375 6.359375 11.460938 C 6.390625 11.476562 6.421875 11.492188 6.457031 11.507812 C 6.527344 11.539062 6.585938 11.570312 6.636719 11.636719 C 6.660156 11.78125 6.644531 11.914062 6.558594 12.039062 C 6.457031 12.105469 6.378906 12.105469 6.261719 12.089844 C 6.207031 12.066406 6.15625 12.039062 6.105469 12.011719 C 6.058594 11.980469 6.058594 11.980469 5.988281 11.988281 C 5.925781 12.042969 5.925781 12.042969 5.867188 12.113281 C 5.855469 12.125 5.84375 12.140625 5.835938 12.152344 C 5.785156 12.207031 5.738281 12.261719 5.691406 12.316406 C 5.554688 12.480469 5.398438 12.625 5.238281 12.765625 C 5.371094 12.722656 5.503906 12.675781 5.632812 12.621094 C 6.003906 12.464844 6.390625 12.347656 6.777344 12.234375 C 6.800781 12.230469 6.820312 12.222656 6.84375 12.21875 C 6.945312 12.1875 7.050781 12.160156 7.152344 12.132812 C 7.394531 12.074219 7.59375 11.988281 7.804688 11.855469 C 7.882812 11.8125 7.882812 11.8125 7.933594 11.8125 C 7.933594 11.789062 7.933594 11.765625 7.933594 11.738281 C 7.953125 11.222656 8.007812 10.484375 8.371094 10.085938 C 8.410156 10.050781 8.410156 10.050781 8.480469 10.003906 C 8.503906 9.984375 8.503906 9.984375 8.527344 9.96875 C 8.609375 9.941406 8.671875 9.957031 8.753906 9.976562 C 8.816406 10.027344 8.851562 10.058594 8.871094 10.140625 C 8.871094 10.507812 8.695312 10.84375 8.527344 11.164062 C 8.496094 11.230469 8.464844 11.292969 8.429688 11.359375 C 8.414062 11.394531 8.398438 11.425781 8.382812 11.460938 C 8.519531 11.335938 8.628906 11.210938 8.71875 11.046875 C 8.808594 10.886719 8.910156 10.746094 9.03125 10.605469 C 9.054688 10.574219 9.054688 10.574219 9.082031 10.542969 C 9.324219 10.265625 9.589844 10.046875 9.902344 9.851562 C 9.929688 9.835938 9.957031 9.816406 9.988281 9.796875 C 10.308594 9.601562 10.738281 9.375 11.125 9.398438 C 11.148438 9.417969 11.175781 9.433594 11.199219 9.449219 C 11.210938 9.519531 11.210938 9.519531 11.199219 9.601562 C 11.082031 9.765625 10.90625 9.898438 10.742188 10.019531 C 10.726562 10.03125 10.707031 10.042969 10.691406 10.058594 C 10.492188 10.207031 10.289062 10.34375 10.082031 10.480469 C 10.042969 10.507812 10.003906 10.535156 9.960938 10.558594 C 9.660156 10.761719 9.355469 10.960938 9.042969 11.148438 C 8.8125 11.289062 8.8125 11.289062 8.628906 11.480469 C 8.480469 11.648438 8.285156 11.78125 8.105469 11.914062 C 8.136719 11.90625 8.171875 11.898438 8.203125 11.894531 C 8.429688 11.847656 8.652344 11.804688 8.882812 11.773438 C 8.902344 11.769531 8.921875 11.765625 8.945312 11.761719 C 9.070312 11.746094 9.195312 11.734375 9.324219 11.722656 C 9.671875 11.699219 9.949219 11.640625 10.261719 11.480469 C 10.363281 11.425781 10.46875 11.382812 10.578125 11.34375 C 10.605469 11.335938 10.636719 11.324219 10.667969 11.3125 C 10.722656 11.292969 10.78125 11.273438 10.839844 11.253906 C 10.980469 11.207031 10.980469 11.207031 11.082031 11.109375 C 11.105469 11.046875 11.105469 11.046875 11.125 10.957031 C 11.1875 10.871094 11.253906 10.835938 11.363281 10.820312 C 11.457031 10.832031 11.515625 10.859375 11.597656 10.90625 C 11.617188 10.917969 11.636719 10.925781 11.65625 10.9375 C 11.671875 10.945312 11.683594 10.949219 11.699219 10.957031 C 11.699219 10.941406 11.699219 10.925781 11.699219 10.90625 C 11.683594 10.90625 11.664062 10.90625 11.648438 10.90625 C 11.523438 10.710938 11.523438 10.710938 11.546875 10.582031 C 11.636719 10.472656 11.730469 10.390625 11.871094 10.367188 C 11.996094 10.386719 12.070312 10.453125 12.15625 10.539062 C 12.207031 10.625 12.203125 10.683594 12.199219 10.78125 C 12.246094 10.773438 12.296875 10.765625 12.347656 10.757812 C 12.339844 10.726562 12.332031 10.695312 12.320312 10.664062 C 12.292969 10.546875 12.277344 10.453125 12.328125 10.335938 C 12.382812 10.269531 12.414062 10.25 12.496094 10.230469 C 12.628906 10.21875 12.710938 10.234375 12.820312 10.304688 C 12.914062 10.390625 12.910156 10.484375 12.921875 10.605469 C 13.839844 10.433594 14.691406 10.019531 15.304688 9.296875 C 15.367188 9.222656 15.433594 9.152344 15.503906 9.082031 C 15.523438 9.066406 15.539062 9.050781 15.558594 9.03125 C 15.613281 8.996094 15.613281 8.996094 15.683594 9.003906 Z M 15.683594 9.003906 "/>
<path style=" stroke:none;fill-rule:nonzero;fill:rgb(97.254902%,97.254902%,94.117647%);fill-opacity:1;" d="M 14.503906 5.261719 C 14.863281 5.492188 15.109375 5.832031 15.203125 6.25 C 15.246094 6.542969 15.238281 6.859375 15.066406 7.113281 C 14.914062 7.277344 14.78125 7.359375 14.554688 7.371094 C 14.25 7.378906 14.023438 7.355469 13.792969 7.136719 C 13.777344 7.144531 13.765625 7.152344 13.75 7.160156 C 13.492188 7.285156 13.21875 7.304688 12.945312 7.214844 C 12.8125 7.144531 12.734375 7.058594 12.679688 6.917969 C 12.65625 6.765625 12.652344 6.65625 12.738281 6.527344 C 12.84375 6.394531 12.949219 6.3125 13.121094 6.28125 C 13.21875 6.28125 13.320312 6.28125 13.417969 6.28125 C 13.417969 6.25 13.417969 6.25 13.417969 6.21875 C 13.410156 5.972656 13.429688 5.777344 13.601562 5.59375 C 13.730469 5.476562 13.859375 5.4375 14.03125 5.445312 C 14.203125 5.46875 14.328125 5.515625 14.441406 5.65625 C 14.515625 5.765625 14.503906 5.875 14.492188 6.007812 C 14.449219 6.140625 14.386719 6.191406 14.265625 6.257812 C 14.148438 6.3125 14.046875 6.3125 13.917969 6.308594 C 13.992188 6.523438 14.101562 6.714844 14.21875 6.910156 C 14.25 6.910156 14.285156 6.910156 14.316406 6.910156 C 14.390625 6.828125 14.421875 6.765625 14.421875 6.65625 C 14.417969 6.601562 14.414062 6.542969 14.410156 6.488281 C 14.402344 6.355469 14.402344 6.355469 14.449219 6.292969 C 14.519531 6.226562 14.558594 6.207031 14.65625 6.203125 C 14.761719 6.238281 14.792969 6.261719 14.839844 6.359375 C 14.867188 6.480469 14.851562 6.582031 14.789062 6.691406 C 14.671875 6.859375 14.527344 6.953125 14.34375 7.035156 C 14.398438 7.125 14.441406 7.160156 14.542969 7.1875 C 14.675781 7.203125 14.789062 7.199219 14.902344 7.121094 C 15.054688 6.984375 15.082031 6.785156 15.097656 6.59375 C 15.113281 6.222656 15 5.90625 14.765625 5.617188 C 14.511719 5.34375 14.183594 5.195312 13.816406 5.171875 C 13.605469 5.167969 13.4375 5.175781 13.269531 5.316406 C 13.167969 5.457031 13.214844 5.652344 13.238281 5.816406 C 13.246094 5.898438 13.246094 5.925781 13.210938 6.007812 C 13.164062 6.0625 13.140625 6.078125 13.070312 6.085938 C 13.039062 6.085938 13.039062 6.085938 13.007812 6.089844 C 12.988281 6.089844 12.96875 6.089844 12.949219 6.089844 C 12.882812 6.078125 12.863281 6.0625 12.820312 6.007812 C 12.769531 5.847656 12.765625 5.648438 12.835938 5.496094 C 12.957031 5.289062 13.125 5.175781 13.347656 5.101562 C 13.734375 5.007812 14.160156 5.070312 14.503906 5.261719 Z M 14.503906 5.261719 "/>
<path style=" stroke:none;fill-rule:nonzero;fill:rgb(97.647059%,97.254902%,94.509804%);fill-opacity:1;" d="M 9.378906 5.929688 C 9.53125 6.023438 9.625 6.160156 9.679688 6.332031 C 9.707031 6.566406 9.695312 6.769531 9.554688 6.960938 C 9.417969 7.109375 9.269531 7.210938 9.066406 7.226562 C 9.027344 7.226562 8.988281 7.226562 8.945312 7.226562 C 8.925781 7.226562 8.90625 7.226562 8.882812 7.226562 C 8.660156 7.21875 8.511719 7.15625 8.359375 6.992188 C 8.230469 6.832031 8.1875 6.660156 8.195312 6.457031 C 8.226562 6.265625 8.324219 6.078125 8.480469 5.960938 C 8.769531 5.785156 9.078125 5.777344 9.378906 5.929688 Z M 9.378906 5.929688 "/>
<path style=" stroke:none;fill-rule:nonzero;fill:rgb(97.647059%,97.254902%,94.509804%);fill-opacity:1;" d="M 3.46875 5.933594 C 3.535156 5.964844 3.550781 6 3.585938 6.066406 C 3.601562 6.085938 3.613281 6.109375 3.625 6.132812 C 3.636719 6.15625 3.648438 6.179688 3.660156 6.203125 C 3.675781 6.226562 3.6875 6.25 3.699219 6.273438 C 3.792969 6.445312 3.792969 6.445312 3.78125 6.515625 C 3.773438 6.539062 3.773438 6.539062 3.765625 6.558594 C 3.667969 6.546875 3.625 6.496094 3.554688 6.425781 C 3.460938 6.324219 3.382812 6.238281 3.238281 6.226562 C 3.199219 6.226562 3.199219 6.226562 3.160156 6.226562 C 3.132812 6.230469 3.105469 6.230469 3.078125 6.230469 C 3.058594 6.230469 3.039062 6.230469 3.019531 6.234375 C 3.023438 6.246094 3.027344 6.261719 3.03125 6.273438 C 3.082031 6.421875 3.132812 6.566406 3.179688 6.710938 C 3.199219 6.765625 3.21875 6.820312 3.234375 6.875 C 3.351562 7.210938 3.460938 7.550781 3.566406 7.890625 C 3.632812 7.898438 3.699219 7.90625 3.765625 7.917969 C 3.765625 7.960938 3.765625 7.960938 3.742188 8.015625 C 3.671875 8.050781 3.671875 8.050781 3.578125 8.082031 C 3.5625 8.089844 3.546875 8.09375 3.53125 8.097656 C 3.496094 8.109375 3.460938 8.121094 3.425781 8.132812 C 3.371094 8.152344 3.320312 8.167969 3.265625 8.1875 C 2.984375 8.28125 2.984375 8.28125 2.894531 8.242188 C 2.925781 8.164062 2.941406 8.144531 3.019531 8.09375 C 3.003906 7.914062 2.941406 7.75 2.886719 7.582031 C 2.875 7.550781 2.867188 7.519531 2.855469 7.484375 C 2.828125 7.402344 2.800781 7.316406 2.773438 7.230469 C 2.726562 7.097656 2.683594 6.960938 2.636719 6.824219 C 2.621094 6.777344 2.605469 6.730469 2.589844 6.683594 C 2.582031 6.652344 2.570312 6.625 2.5625 6.597656 C 2.554688 6.570312 2.546875 6.546875 2.535156 6.519531 C 2.519531 6.460938 2.519531 6.460938 2.519531 6.410156 C 2.488281 6.421875 2.457031 6.433594 2.425781 6.449219 C 2.410156 6.457031 2.390625 6.460938 2.375 6.46875 C 2.25 6.5625 2.210938 6.699219 2.183594 6.84375 C 2.183594 6.859375 2.179688 6.878906 2.175781 6.898438 C 2.171875 6.914062 2.171875 6.933594 2.167969 6.953125 C 2.160156 6.996094 2.152344 7.042969 2.144531 7.085938 C 2.097656 7.101562 2.097656 7.101562 2.046875 7.113281 C 1.996094 7.007812 1.980469 6.902344 1.96875 6.789062 C 1.964844 6.769531 1.964844 6.753906 1.960938 6.734375 C 1.949219 6.632812 1.945312 6.535156 1.945312 6.433594 C 1.96875 6.429688 1.992188 6.421875 2.015625 6.417969 C 2.277344 6.355469 2.53125 6.277344 2.785156 6.191406 C 2.851562 6.167969 2.917969 6.144531 2.980469 6.125 C 3.023438 6.109375 3.066406 6.097656 3.109375 6.082031 C 3.128906 6.074219 3.148438 6.070312 3.167969 6.0625 C 3.246094 6.035156 3.308594 6.015625 3.375 5.960938 C 3.417969 5.929688 3.417969 5.929688 3.46875 5.933594 Z M 3.46875 5.933594 "/>
<path style=" stroke:none;fill-rule:nonzero;fill:rgb(97.647059%,97.254902%,94.509804%);fill-opacity:1;" d="M 17.460938 5.730469 C 17.476562 5.742188 17.496094 5.757812 17.515625 5.773438 C 17.5625 5.8125 17.5625 5.8125 17.636719 5.800781 C 17.679688 5.789062 17.722656 5.777344 17.765625 5.765625 C 17.78125 5.761719 17.796875 5.757812 17.808594 5.753906 C 17.878906 5.824219 17.859375 6.011719 17.863281 6.105469 C 17.863281 6.148438 17.863281 6.191406 17.859375 6.234375 C 17.859375 6.253906 17.859375 6.277344 17.859375 6.300781 C 17.859375 6.351562 17.859375 6.40625 17.859375 6.460938 C 17.8125 6.449219 17.8125 6.449219 17.757812 6.433594 C 17.726562 6.367188 17.726562 6.367188 17.699219 6.277344 C 17.625 6.070312 17.550781 5.933594 17.355469 5.824219 C 17.230469 5.789062 17.121094 5.78125 17.003906 5.832031 C 16.78125 5.964844 16.691406 6.160156 16.628906 6.402344 C 16.5625 6.671875 16.550781 6.953125 16.664062 7.214844 C 16.75 7.351562 16.851562 7.445312 17.011719 7.488281 C 17.1875 7.511719 17.339844 7.5 17.484375 7.390625 C 17.535156 7.335938 17.578125 7.285156 17.621094 7.226562 C 17.632812 7.214844 17.648438 7.203125 17.660156 7.1875 C 17.683594 7.1875 17.710938 7.1875 17.734375 7.1875 C 17.714844 7.363281 17.621094 7.496094 17.488281 7.605469 C 17.242188 7.765625 16.984375 7.765625 16.707031 7.710938 C 16.453125 7.640625 16.257812 7.496094 16.121094 7.273438 C 15.980469 7.015625 15.972656 6.695312 16.042969 6.414062 C 16.140625 6.097656 16.316406 5.859375 16.605469 5.707031 C 16.886719 5.578125 17.183594 5.601562 17.460938 5.730469 Z M 17.460938 5.730469 "/>
<path style=" stroke:none;fill-rule:nonzero;fill:rgb(97.254902%,96.862745%,94.117647%);fill-opacity:1;" d="M 19.828125 7.011719 C 19.96875 7.09375 20.058594 7.210938 20.105469 7.363281 C 20.121094 7.480469 20.117188 7.582031 20.078125 7.695312 C 20.03125 7.742188 20.03125 7.742188 19.949219 7.746094 C 19.847656 7.742188 19.769531 7.71875 19.675781 7.683594 C 19.511719 7.625 19.351562 7.578125 19.179688 7.539062 C 19.222656 7.800781 19.222656 7.800781 19.382812 8 C 19.5 8.0625 19.625 8.0625 19.753906 8.042969 C 19.8125 8.015625 19.855469 7.984375 19.90625 7.941406 C 19.929688 7.941406 19.953125 7.941406 19.980469 7.941406 C 19.972656 8.039062 19.9375 8.109375 19.871094 8.183594 C 19.738281 8.296875 19.566406 8.335938 19.390625 8.328125 C 19.167969 8.296875 18.984375 8.195312 18.839844 8.015625 C 18.742188 7.867188 18.707031 7.691406 18.734375 7.515625 C 18.808594 7.246094 18.9375 7.074219 19.179688 6.9375 C 19.398438 6.863281 19.625 6.925781 19.828125 7.011719 Z M 19.828125 7.011719 "/>
<path style=" stroke:none;fill-rule:nonzero;fill:rgb(97.647059%,97.254902%,94.509804%);fill-opacity:1;" d="M 5.070312 6.449219 C 5.167969 6.527344 5.246094 6.613281 5.289062 6.734375 C 5.289062 6.792969 5.289062 6.851562 5.289062 6.910156 C 5.136719 6.984375 4.984375 7.019531 4.820312 7.054688 C 4.765625 7.0625 4.714844 7.074219 4.664062 7.085938 C 4.628906 7.09375 4.628906 7.09375 4.59375 7.097656 C 4.539062 7.109375 4.539062 7.109375 4.488281 7.136719 C 4.539062 7.253906 4.585938 7.320312 4.6875 7.390625 C 4.820312 7.433594 4.957031 7.433594 5.085938 7.382812 C 5.210938 7.3125 5.25 7.21875 5.3125 7.085938 C 5.328125 7.09375 5.347656 7.105469 5.363281 7.113281 C 5.375 7.277344 5.359375 7.402344 5.261719 7.539062 C 5.097656 7.71875 4.90625 7.777344 4.667969 7.800781 C 4.488281 7.796875 4.332031 7.703125 4.203125 7.582031 C 4.046875 7.402344 4.03125 7.191406 4.035156 6.960938 C 4.046875 6.777344 4.105469 6.6875 4.238281 6.5625 C 4.464844 6.378906 4.804688 6.292969 5.070312 6.449219 Z M 5.070312 6.449219 "/>
<path style=" stroke:none;fill-rule:nonzero;fill:rgb(67.843139%,70.588237%,62.352943%);fill-opacity:1;" d="M 15.964844 12.566406 C 17.105469 12.628906 18.085938 13.140625 19.03125 13.746094 C 18.945312 13.777344 18.882812 13.769531 18.792969 13.753906 C 18.765625 13.746094 18.738281 13.742188 18.710938 13.738281 C 18.679688 13.730469 18.652344 13.726562 18.621094 13.71875 C 18.589844 13.714844 18.558594 13.710938 18.527344 13.703125 C 18.265625 13.652344 18.011719 13.582031 17.757812 13.496094 C 17.738281 13.488281 17.71875 13.484375 17.699219 13.476562 C 17.433594 13.382812 17.183594 13.277344 16.933594 13.144531 C 16.886719 13.121094 16.839844 13.09375 16.789062 13.070312 C 16.59375 12.976562 16.402344 12.871094 16.214844 12.757812 C 16.191406 12.746094 16.171875 12.730469 16.148438 12.71875 C 16.117188 12.699219 16.117188 12.699219 16.085938 12.679688 C 16.066406 12.667969 16.050781 12.65625 16.03125 12.648438 C 15.988281 12.617188 15.988281 12.617188 15.964844 12.566406 Z M 15.964844 12.566406 "/>
<path style=" stroke:none;fill-rule:nonzero;fill:rgb(97.254902%,96.862745%,94.117647%);fill-opacity:1;" d="M 7.882812 5.90625 C 7.96875 5.96875 8.019531 6.039062 8.050781 6.144531 C 8.066406 6.253906 8.0625 6.320312 8.023438 6.421875 C 7.933594 6.507812 7.851562 6.507812 7.734375 6.507812 C 7.667969 6.417969 7.621094 6.347656 7.609375 6.234375 C 7.574219 6.234375 7.542969 6.234375 7.507812 6.234375 C 7.46875 6.308594 7.476562 6.386719 7.476562 6.472656 C 7.476562 6.492188 7.476562 6.507812 7.476562 6.527344 C 7.480469 6.742188 7.503906 6.953125 7.53125 7.164062 C 7.605469 7.179688 7.679688 7.195312 7.757812 7.214844 C 7.75 7.238281 7.742188 7.261719 7.734375 7.289062 C 7.464844 7.328125 7.203125 7.351562 6.933594 7.363281 C 6.945312 7.316406 6.945312 7.316406 6.960938 7.261719 C 6.984375 7.25 6.984375 7.25 7.007812 7.238281 C 6.992188 6.902344 6.992188 6.902344 6.964844 6.566406 C 6.957031 6.460938 6.957031 6.359375 6.960938 6.257812 C 6.917969 6.257812 6.875 6.257812 6.835938 6.257812 C 6.835938 6.226562 6.835938 6.191406 6.835938 6.15625 C 6.898438 6.128906 6.960938 6.097656 7.027344 6.070312 C 7.042969 6.0625 7.0625 6.050781 7.082031 6.042969 C 7.175781 6 7.25 5.96875 7.359375 5.980469 C 7.382812 6.046875 7.40625 6.113281 7.433594 6.183594 C 7.445312 6.160156 7.445312 6.160156 7.457031 6.140625 C 7.554688 5.964844 7.667969 5.867188 7.882812 5.90625 Z M 7.882812 5.90625 "/>
<path style=" stroke:none;fill-rule:nonzero;fill:rgb(97.647059%,97.254902%,94.509804%);fill-opacity:1;" d="M 6.511719 6.082031 C 6.578125 6.136719 6.621094 6.179688 6.660156 6.257812 C 6.664062 6.304688 6.664062 6.347656 6.667969 6.394531 C 6.667969 6.417969 6.667969 6.441406 6.667969 6.464844 C 6.660156 6.546875 6.640625 6.578125 6.585938 6.636719 C 6.53125 6.652344 6.53125 6.652344 6.472656 6.660156 C 6.453125 6.660156 6.433594 6.664062 6.414062 6.664062 C 6.359375 6.660156 6.359375 6.660156 6.316406 6.628906 C 6.269531 6.5625 6.253906 6.488281 6.234375 6.410156 C 6.203125 6.410156 6.171875 6.410156 6.136719 6.410156 C 6.023438 6.636719 6.136719 7.027344 6.1875 7.261719 C 6.195312 7.289062 6.203125 7.3125 6.210938 7.339844 C 6.277344 7.347656 6.34375 7.355469 6.410156 7.363281 C 6.417969 7.386719 6.425781 7.414062 6.433594 7.4375 C 6.167969 7.507812 5.890625 7.570312 5.613281 7.566406 C 5.621094 7.515625 5.621094 7.515625 5.636719 7.464844 C 5.660156 7.453125 5.660156 7.453125 5.6875 7.4375 C 5.695312 7.257812 5.667969 7.085938 5.636719 6.90625 C 5.628906 6.847656 5.617188 6.789062 5.609375 6.734375 C 5.605469 6.707031 5.601562 6.683594 5.597656 6.65625 C 5.585938 6.589844 5.585938 6.527344 5.585938 6.460938 C 5.539062 6.460938 5.488281 6.460938 5.4375 6.460938 C 5.453125 6.367188 5.453125 6.367188 5.5 6.328125 C 5.515625 6.320312 5.53125 6.3125 5.546875 6.304688 C 5.574219 6.292969 5.574219 6.292969 5.601562 6.277344 C 5.617188 6.269531 5.636719 6.261719 5.65625 6.25 C 5.683594 6.238281 5.683594 6.238281 5.710938 6.222656 C 5.804688 6.175781 5.878906 6.144531 5.988281 6.15625 C 6.003906 6.230469 6.019531 6.308594 6.035156 6.382812 C 6.054688 6.351562 6.074219 6.320312 6.089844 6.289062 C 6.199219 6.117188 6.304688 6.039062 6.511719 6.082031 Z M 6.511719 6.082031 "/>
<path style=" stroke:none;fill-rule:nonzero;fill:rgb(97.647059%,97.254902%,94.509804%);fill-opacity:1;" d="M 11.324219 5.804688 C 11.332031 5.878906 11.339844 5.953125 11.347656 6.03125 C 11.359375 6.015625 11.375 6.003906 11.386719 5.988281 C 11.402344 5.96875 11.417969 5.953125 11.433594 5.933594 C 11.449219 5.914062 11.464844 5.894531 11.480469 5.878906 C 11.546875 5.804688 11.597656 5.800781 11.695312 5.796875 C 11.78125 5.796875 11.820312 5.804688 11.902344 5.847656 C 11.976562 5.980469 11.972656 6.109375 11.949219 6.257812 C 11.894531 6.339844 11.894531 6.339844 11.824219 6.382812 C 11.726562 6.398438 11.671875 6.398438 11.589844 6.347656 C 11.53125 6.257812 11.53125 6.1875 11.523438 6.082031 C 11.460938 6.085938 11.460938 6.085938 11.398438 6.105469 C 11.34375 6.210938 11.34375 6.300781 11.34375 6.414062 C 11.34375 6.441406 11.34375 6.441406 11.34375 6.46875 C 11.34375 6.523438 11.34375 6.574219 11.347656 6.628906 C 11.347656 6.667969 11.347656 6.703125 11.347656 6.742188 C 11.347656 6.832031 11.347656 6.921875 11.347656 7.011719 C 11.414062 7.027344 11.480469 7.046875 11.546875 7.0625 C 11.546875 7.085938 11.546875 7.113281 11.546875 7.136719 C 11.277344 7.136719 11.003906 7.136719 10.726562 7.136719 C 10.734375 7.105469 10.742188 7.070312 10.75 7.035156 C 10.789062 7.023438 10.789062 7.023438 10.824219 7.011719 C 10.832031 6.679688 10.84375 6.347656 10.851562 6.007812 C 10.808594 6.007812 10.769531 6.007812 10.726562 6.007812 C 10.734375 5.980469 10.742188 5.957031 10.75 5.929688 C 10.820312 5.902344 10.820312 5.902344 10.90625 5.878906 C 10.9375 5.871094 10.964844 5.859375 10.996094 5.851562 C 11.035156 5.839844 11.035156 5.839844 11.074219 5.832031 C 11.09375 5.824219 11.109375 5.820312 11.128906 5.816406 C 11.195312 5.800781 11.257812 5.804688 11.324219 5.804688 Z M 11.324219 5.804688 "/>
<path style=" stroke:none;fill-rule:nonzero;fill:rgb(97.254902%,96.862745%,94.117647%);fill-opacity:1;" d="M 10.425781 5.804688 C 10.464844 5.84375 10.453125 5.886719 10.453125 5.941406 C 10.453125 5.976562 10.453125 5.976562 10.453125 6.011719 C 10.453125 6.039062 10.453125 6.0625 10.453125 6.089844 C 10.457031 6.140625 10.457031 6.195312 10.457031 6.25 C 10.457031 6.332031 10.457031 6.417969 10.457031 6.503906 C 10.457031 6.585938 10.457031 6.664062 10.460938 6.746094 C 10.460938 6.773438 10.460938 6.796875 10.457031 6.824219 C 10.460938 6.890625 10.460938 6.949219 10.476562 7.011719 C 10.535156 7.070312 10.535156 7.070312 10.601562 7.085938 C 10.585938 7.113281 10.566406 7.136719 10.550781 7.164062 C 10.484375 7.171875 10.484375 7.171875 10.398438 7.171875 C 10.351562 7.167969 10.351562 7.167969 10.308594 7.167969 C 10.277344 7.167969 10.242188 7.167969 10.210938 7.167969 C 10.179688 7.167969 10.148438 7.167969 10.113281 7.167969 C 10.035156 7.164062 9.957031 7.164062 9.878906 7.164062 C 9.878906 7.128906 9.878906 7.097656 9.878906 7.0625 C 9.914062 7.050781 9.914062 7.050781 9.953125 7.035156 C 9.953125 6.714844 9.953125 6.390625 9.953125 6.058594 C 9.917969 6.046875 9.886719 6.039062 9.851562 6.03125 C 9.859375 5.984375 9.859375 5.984375 9.878906 5.929688 C 9.917969 5.90625 9.917969 5.90625 9.96875 5.886719 C 9.996094 5.878906 9.996094 5.878906 10.023438 5.867188 C 10.054688 5.859375 10.054688 5.859375 10.082031 5.847656 C 10.101562 5.839844 10.121094 5.835938 10.140625 5.828125 C 10.242188 5.792969 10.320312 5.765625 10.425781 5.804688 Z M 10.425781 5.804688 "/>
<path style=" stroke:none;fill-rule:nonzero;fill:rgb(97.647059%,97.254902%,94.509804%);fill-opacity:1;" d="M 18.609375 6.660156 C 18.65625 6.730469 18.65625 6.757812 18.644531 6.84375 C 18.636719 6.878906 18.628906 6.910156 18.621094 6.945312 C 18.617188 6.960938 18.613281 6.980469 18.605469 7 C 18.59375 7.054688 18.578125 7.113281 18.5625 7.167969 C 18.554688 7.207031 18.546875 7.246094 18.535156 7.28125 C 18.519531 7.351562 18.5 7.421875 18.484375 7.492188 C 18.46875 7.539062 18.46875 7.539062 18.457031 7.589844 C 18.453125 7.609375 18.449219 7.625 18.445312 7.644531 C 18.40625 7.78125 18.40625 7.78125 18.433594 7.917969 C 18.449219 7.925781 18.464844 7.933594 18.484375 7.941406 C 18.484375 7.964844 18.484375 7.992188 18.484375 8.015625 C 18.324219 8.003906 18.175781 7.976562 18.019531 7.941406 C 18 7.933594 17.980469 7.929688 17.957031 7.925781 C 17.910156 7.914062 17.859375 7.902344 17.808594 7.890625 C 17.800781 7.859375 17.792969 7.824219 17.785156 7.789062 C 17.847656 7.777344 17.847656 7.777344 17.910156 7.765625 C 17.9375 7.652344 17.964844 7.542969 17.996094 7.429688 C 18.003906 7.390625 18.015625 7.355469 18.023438 7.316406 C 18.039062 7.261719 18.050781 7.207031 18.066406 7.152344 C 18.070312 7.136719 18.074219 7.117188 18.078125 7.101562 C 18.101562 7.003906 18.121094 6.914062 18.109375 6.8125 C 18.085938 6.792969 18.058594 6.777344 18.035156 6.761719 C 18.042969 6.734375 18.050781 6.710938 18.058594 6.683594 C 18.242188 6.667969 18.421875 6.65625 18.609375 6.660156 Z M 18.609375 6.660156 "/>
<path style=" stroke:none;fill-rule:nonzero;fill:rgb(67.843139%,70.588237%,62.352943%);fill-opacity:1;" d="M 9.03125 16.210938 C 9.128906 16.261719 9.175781 16.328125 9.214844 16.433594 C 9.25 16.578125 9.246094 16.730469 9.199219 16.875 C 9.128906 16.976562 9.070312 17.050781 8.945312 17.074219 C 8.839844 17.082031 8.765625 17.070312 8.667969 17.027344 C 8.539062 16.898438 8.527344 16.789062 8.519531 16.609375 C 8.523438 16.46875 8.53125 16.390625 8.628906 16.285156 C 8.746094 16.175781 8.878906 16.191406 9.03125 16.210938 Z M 9.03125 16.210938 "/>
<path style=" stroke:none;fill-rule:nonzero;fill:rgb(67.843139%,70.588237%,62.352943%);fill-opacity:1;" d="M 9.828125 16.210938 C 9.921875 16.25 9.972656 16.300781 10.027344 16.386719 C 10.078125 16.535156 10.078125 16.722656 10.035156 16.875 C 9.984375 16.96875 9.925781 17.027344 9.828125 17.066406 C 9.726562 17.082031 9.628906 17.085938 9.53125 17.042969 C 9.4375 16.96875 9.378906 16.878906 9.355469 16.761719 C 9.332031 16.574219 9.339844 16.4375 9.453125 16.285156 C 9.566406 16.179688 9.683594 16.195312 9.828125 16.210938 Z M 9.828125 16.210938 "/>
<path style=" stroke:none;fill-rule:nonzero;fill:rgb(68.235296%,70.588237%,62.7451%);fill-opacity:1;" d="M 14.292969 13.117188 C 14.800781 13.367188 15.277344 13.628906 15.6875 14.023438 C 15.707031 14.042969 15.726562 14.058594 15.746094 14.078125 C 15.910156 14.230469 16.089844 14.433594 16.164062 14.652344 C 16.046875 14.617188 15.949219 14.566406 15.847656 14.5 C 15.832031 14.488281 15.820312 14.480469 15.804688 14.46875 C 15.652344 14.371094 15.5 14.269531 15.363281 14.148438 C 15.363281 14.132812 15.363281 14.117188 15.363281 14.097656 C 15.351562 14.089844 15.335938 14.082031 15.316406 14.074219 C 15.285156 14.058594 15.25 14.042969 15.214844 14.023438 C 15.214844 14.007812 15.214844 13.992188 15.214844 13.972656 C 15.199219 13.964844 15.1875 13.960938 15.171875 13.953125 C 15.117188 13.921875 15.117188 13.921875 15.039062 13.871094 C 15.039062 13.855469 15.039062 13.839844 15.039062 13.824219 C 15.027344 13.816406 15.011719 13.808594 15 13.804688 C 14.929688 13.765625 14.875 13.722656 14.816406 13.671875 C 14.816406 13.65625 14.816406 13.640625 14.816406 13.621094 C 14.800781 13.617188 14.789062 13.609375 14.773438 13.601562 C 14.703125 13.566406 14.652344 13.515625 14.59375 13.464844 C 14.570312 13.445312 14.550781 13.425781 14.527344 13.40625 C 14.46875 13.34375 14.46875 13.34375 14.414062 13.277344 C 14.367188 13.214844 14.367188 13.214844 14.292969 13.167969 C 14.292969 13.152344 14.292969 13.136719 14.292969 13.117188 Z M 14.292969 13.117188 "/>
<path style=" stroke:none;fill-rule:nonzero;fill:rgb(67.843139%,70.588237%,62.352943%);fill-opacity:1;" d="M 8.851562 5.941406 C 8.957031 5.960938 8.988281 5.996094 9.054688 6.082031 C 9.199219 6.351562 9.257812 6.65625 9.230469 6.960938 C 9.203125 7.039062 9.203125 7.039062 9.152344 7.085938 C 9.070312 7.117188 9.070312 7.117188 8.980469 7.113281 C 8.855469 7.023438 8.804688 6.898438 8.753906 6.761719 C 8.746094 6.738281 8.738281 6.71875 8.730469 6.699219 C 8.6875 6.558594 8.671875 6.421875 8.667969 6.273438 C 8.667969 6.257812 8.667969 6.238281 8.667969 6.222656 C 8.667969 6.132812 8.679688 6.085938 8.726562 6.007812 C 8.78125 5.957031 8.78125 5.957031 8.851562 5.941406 Z M 8.851562 5.941406 "/>
<path style=" stroke:none;fill-rule:nonzero;fill:rgb(68.235296%,70.588237%,62.7451%);fill-opacity:1;" d="M 10.949219 9.625 C 10.726562 9.824219 10.492188 9.992188 10.246094 10.15625 C 10.171875 10.207031 10.101562 10.253906 10.03125 10.300781 C 9.703125 10.527344 9.367188 10.742188 9.03125 10.957031 C 9.03125 10.78125 9.25 10.605469 9.367188 10.480469 C 9.710938 10.144531 10.132812 9.882812 10.574219 9.699219 C 10.613281 9.6875 10.613281 9.6875 10.648438 9.671875 C 10.851562 9.589844 10.851562 9.589844 10.949219 9.625 Z M 10.949219 9.625 "/>
<path style=" stroke:none;fill-rule:nonzero;fill:rgb(96.078432%,95.686275%,92.54902%);fill-opacity:1;" d="M 12.121094 16.460938 C 12.207031 16.515625 12.238281 16.539062 12.273438 16.636719 C 12.285156 16.742188 12.296875 16.84375 12.246094 16.9375 C 12.1875 17.007812 12.140625 17.058594 12.046875 17.070312 C 11.941406 17.078125 11.871094 17.074219 11.785156 17.007812 C 11.6875 16.902344 11.691406 16.8125 11.691406 16.675781 C 11.703125 16.585938 11.734375 16.542969 11.796875 16.488281 C 11.90625 16.417969 12 16.429688 12.121094 16.460938 Z M 12.121094 16.460938 "/>
<path style=" stroke:none;fill-rule:nonzero;fill:rgb(68.235296%,70.980394%,62.7451%);fill-opacity:1;" d="M 8.582031 10.128906 C 8.648438 10.132812 8.648438 10.132812 8.707031 10.152344 C 8.660156 10.613281 8.402344 11.078125 8.15625 11.460938 C 8.128906 11.375 8.136719 11.3125 8.152344 11.222656 C 8.160156 11.179688 8.160156 11.179688 8.171875 11.140625 C 8.175781 11.113281 8.183594 11.082031 8.1875 11.054688 C 8.191406 11.027344 8.199219 11 8.203125 10.972656 C 8.296875 10.519531 8.296875 10.519531 8.40625 10.34375 C 8.421875 10.316406 8.421875 10.316406 8.441406 10.285156 C 8.484375 10.226562 8.523438 10.175781 8.582031 10.128906 Z M 8.582031 10.128906 "/>
<path style=" stroke:none;fill-rule:nonzero;fill:rgb(68.627453%,70.980394%,63.137257%);fill-opacity:1;" d="M 13.371094 6.332031 C 13.394531 6.339844 13.417969 6.351562 13.445312 6.359375 C 13.46875 6.425781 13.46875 6.425781 13.488281 6.515625 C 13.539062 6.710938 13.621094 6.882812 13.71875 7.0625 C 13.601562 7.101562 13.460938 7.121094 13.347656 7.0625 C 13.265625 7 13.21875 6.9375 13.195312 6.835938 C 13.179688 6.683594 13.183594 6.566406 13.269531 6.433594 C 13.324219 6.375 13.324219 6.375 13.371094 6.332031 Z M 13.371094 6.332031 "/>
<path style=" stroke:none;fill-rule:nonzero;fill:rgb(96.078432%,96.078432%,92.941177%);fill-opacity:1;" d="M 13.542969 16.488281 C 13.597656 16.566406 13.601562 16.582031 13.597656 16.675781 C 13.597656 16.695312 13.597656 16.714844 13.597656 16.738281 C 13.597656 16.761719 13.597656 16.78125 13.597656 16.804688 C 13.597656 16.828125 13.597656 16.851562 13.597656 16.875 C 13.597656 16.929688 13.59375 16.984375 13.59375 17.039062 C 13.570312 17.039062 13.542969 17.039062 13.519531 17.039062 C 13.511719 17.023438 13.503906 17.007812 13.496094 16.988281 C 13.480469 17 13.46875 17.015625 13.457031 17.027344 C 13.371094 17.078125 13.292969 17.082031 13.195312 17.066406 C 13.132812 17.027344 13.132812 17.027344 13.09375 16.964844 C 13.078125 16.816406 13.078125 16.816406 13.128906 16.742188 C 13.210938 16.6875 13.28125 16.683594 13.375 16.6875 C 13.398438 16.6875 13.417969 16.6875 13.441406 16.6875 C 13.460938 16.6875 13.476562 16.6875 13.496094 16.6875 C 13.484375 16.636719 13.484375 16.636719 13.46875 16.585938 C 13.398438 16.550781 13.347656 16.554688 13.269531 16.5625 C 13.230469 16.597656 13.230469 16.597656 13.195312 16.636719 C 13.160156 16.636719 13.128906 16.636719 13.09375 16.636719 C 13.117188 16.554688 13.136719 16.515625 13.207031 16.464844 C 13.328125 16.425781 13.429688 16.441406 13.542969 16.488281 Z M 13.542969 16.488281 "/>
<path style=" stroke:none;fill-rule:nonzero;fill:rgb(96.078432%,95.686275%,92.54902%);fill-opacity:1;" d="M 9.03125 16.210938 C 9.128906 16.261719 9.175781 16.328125 9.214844 16.433594 C 9.25 16.578125 9.246094 16.730469 9.199219 16.875 C 9.128906 16.976562 9.070312 17.050781 8.945312 17.074219 C 8.839844 17.082031 8.765625 17.070312 8.667969 17.027344 C 8.539062 16.898438 8.527344 16.789062 8.519531 16.609375 C 8.523438 16.46875 8.53125 16.390625 8.628906 16.285156 C 8.746094 16.175781 8.878906 16.191406 9.03125 16.210938 Z M 8.679688 16.386719 C 8.609375 16.5 8.617188 16.632812 8.628906 16.761719 C 8.667969 16.867188 8.6875 16.902344 8.78125 16.964844 C 8.929688 16.980469 8.929688 16.980469 9.054688 16.90625 C 9.144531 16.78125 9.148438 16.640625 9.128906 16.488281 C 9.078125 16.390625 9.042969 16.347656 8.953125 16.285156 C 8.828125 16.269531 8.769531 16.292969 8.679688 16.386719 Z M 8.679688 16.386719 "/>
<path style=" stroke:none;fill-rule:nonzero;fill:rgb(96.078432%,96.078432%,92.941177%);fill-opacity:1;" d="M 9.828125 16.210938 C 9.921875 16.25 9.972656 16.300781 10.027344 16.386719 C 10.078125 16.535156 10.078125 16.722656 10.035156 16.875 C 9.984375 16.96875 9.925781 17.027344 9.828125 17.066406 C 9.726562 17.082031 9.628906 17.085938 9.53125 17.042969 C 9.4375 16.96875 9.378906 16.878906 9.355469 16.761719 C 9.332031 16.574219 9.339844 16.4375 9.453125 16.285156 C 9.566406 16.179688 9.683594 16.195312 9.828125 16.210938 Z M 9.503906 16.386719 C 9.433594 16.5 9.445312 16.609375 9.453125 16.738281 C 9.480469 16.839844 9.519531 16.902344 9.601562 16.964844 C 9.683594 16.976562 9.726562 16.980469 9.800781 16.964844 C 9.882812 16.902344 9.921875 16.859375 9.953125 16.761719 C 9.957031 16.714844 9.957031 16.664062 9.957031 16.617188 C 9.960938 16.589844 9.960938 16.5625 9.960938 16.539062 C 9.953125 16.449219 9.929688 16.40625 9.878906 16.335938 C 9.726562 16.253906 9.625 16.265625 9.503906 16.386719 Z M 9.503906 16.386719 "/>
<path style=" stroke:none;fill-rule:nonzero;fill:rgb(97.254902%,96.862745%,94.117647%);fill-opacity:1;" d="M 18.582031 5.980469 C 18.675781 6.03125 18.722656 6.066406 18.78125 6.15625 C 18.792969 6.261719 18.792969 6.316406 18.738281 6.40625 C 18.667969 6.472656 18.621094 6.484375 18.523438 6.492188 C 18.414062 6.484375 18.367188 6.453125 18.285156 6.382812 C 18.230469 6.316406 18.230469 6.265625 18.234375 6.183594 C 18.246094 6.105469 18.257812 6.082031 18.308594 6.019531 C 18.402344 5.972656 18.480469 5.960938 18.582031 5.980469 Z M 18.582031 5.980469 "/>
<path style=" stroke:none;fill-rule:nonzero;fill:rgb(97.647059%,97.254902%,94.117647%);fill-opacity:1;" d="M 10.167969 5.144531 C 10.257812 5.144531 10.320312 5.148438 10.390625 5.203125 C 10.457031 5.285156 10.472656 5.324219 10.464844 5.429688 C 10.441406 5.511719 10.390625 5.554688 10.328125 5.605469 C 10.238281 5.648438 10.148438 5.644531 10.050781 5.628906 C 9.976562 5.570312 9.976562 5.570312 9.925781 5.503906 C 9.917969 5.496094 9.910156 5.488281 9.902344 5.480469 C 9.894531 5.398438 9.894531 5.398438 9.902344 5.304688 C 9.964844 5.230469 9.964844 5.230469 10.027344 5.175781 C 10.066406 5.136719 10.113281 5.144531 10.167969 5.144531 Z M 10.167969 5.144531 "/>
<path style=" stroke:none;fill-rule:nonzero;fill:rgb(69.01961%,71.372551%,63.529414%);fill-opacity:1;" d="M 12.820312 12.390625 C 12.910156 12.476562 12.988281 12.570312 13.070312 12.667969 C 13.089844 12.6875 13.113281 12.707031 13.132812 12.730469 C 13.199219 12.796875 13.257812 12.871094 13.320312 12.941406 C 13.382812 13.007812 13.445312 13.066406 13.507812 13.128906 C 13.636719 13.25 13.726562 13.355469 13.792969 13.519531 C 13.671875 13.539062 13.609375 13.523438 13.507812 13.449219 C 13.292969 13.261719 13.152344 13.003906 13.007812 12.753906 C 12.992188 12.726562 12.976562 12.699219 12.960938 12.671875 C 12.847656 12.476562 12.847656 12.476562 12.820312 12.390625 Z M 12.820312 12.390625 "/>
<path style=" stroke:none;fill-rule:nonzero;fill:rgb(69.01961%,71.372551%,63.529414%);fill-opacity:1;" d="M 14.417969 10.65625 C 14.644531 10.636719 14.847656 10.683594 15.066406 10.746094 C 15.105469 10.753906 15.148438 10.761719 15.1875 10.773438 C 15.46875 10.839844 15.722656 11.042969 15.914062 11.257812 C 15.90625 11.277344 15.898438 11.292969 15.890625 11.308594 C 15.839844 11.285156 15.789062 11.261719 15.738281 11.238281 C 15.722656 11.230469 15.703125 11.222656 15.6875 11.214844 C 15.582031 11.167969 15.480469 11.117188 15.375 11.066406 C 15.109375 10.933594 14.851562 10.816406 14.566406 10.730469 C 14.515625 10.714844 14.46875 10.699219 14.417969 10.679688 C 14.417969 10.671875 14.417969 10.664062 14.417969 10.65625 Z M 14.417969 10.65625 "/>
<path style=" stroke:none;fill-rule:nonzero;fill:rgb(68.627453%,70.980394%,63.137257%);fill-opacity:1;" d="M 9.753906 13.296875 C 9.929688 13.308594 10.09375 13.355469 10.265625 13.402344 C 10.335938 13.421875 10.40625 13.441406 10.480469 13.460938 C 11.019531 13.609375 11.019531 13.609375 11.25 13.722656 C 11.25 13.738281 11.25 13.753906 11.25 13.773438 C 10.757812 13.800781 10.140625 13.609375 9.753906 13.296875 Z M 9.753906 13.296875 "/>
<path style=" stroke:none;fill-rule:nonzero;fill:rgb(68.235296%,70.980394%,62.7451%);fill-opacity:1;" d="M 19.503906 7.027344 C 19.582031 7.035156 19.582031 7.035156 19.640625 7.074219 C 19.722656 7.203125 19.679688 7.371094 19.65625 7.515625 C 19.648438 7.523438 19.640625 7.53125 19.628906 7.539062 C 19.492188 7.535156 19.359375 7.515625 19.230469 7.464844 C 19.242188 7.300781 19.316406 7.050781 19.503906 7.027344 Z M 19.503906 7.027344 "/>
<path style=" stroke:none;fill-rule:nonzero;fill:rgb(68.235296%,70.588237%,62.7451%);fill-opacity:1;" d="M 4.589844 6.507812 C 4.6875 6.542969 4.742188 6.59375 4.789062 6.683594 C 4.8125 6.769531 4.828125 6.851562 4.839844 6.9375 C 4.707031 6.984375 4.582031 7.023438 4.441406 7.035156 C 4.390625 6.984375 4.40625 6.886719 4.40625 6.816406 C 4.40625 6.796875 4.40625 6.777344 4.40625 6.761719 C 4.402344 6.671875 4.40625 6.621094 4.460938 6.546875 C 4.515625 6.507812 4.515625 6.507812 4.589844 6.507812 Z M 4.589844 6.507812 "/>
<path style=" stroke:none;fill-rule:nonzero;fill:rgb(68.627453%,71.372551%,63.529414%);fill-opacity:1;" d="M 7.734375 12.214844 C 7.71875 12.226562 7.707031 12.238281 7.695312 12.25 C 7.640625 12.34375 7.640625 12.433594 7.632812 12.539062 C 7.316406 12.515625 7 12.492188 6.683594 12.464844 C 6.761719 12.421875 6.835938 12.398438 6.921875 12.375 C 6.949219 12.367188 6.976562 12.359375 7.003906 12.351562 C 7.042969 12.339844 7.042969 12.339844 7.085938 12.328125 C 7.113281 12.320312 7.140625 12.3125 7.167969 12.304688 C 7.621094 12.175781 7.621094 12.175781 7.734375 12.214844 Z M 7.734375 12.214844 "/>
<path style=" stroke:none;fill-rule:nonzero;fill:rgb(68.235296%,70.588237%,62.7451%);fill-opacity:1;" d="M 13.96875 5.554688 C 14.082031 5.566406 14.082031 5.566406 14.117188 5.605469 C 14.136719 5.796875 14.128906 6.011719 14.011719 6.175781 C 13.980469 6.210938 13.980469 6.210938 13.917969 6.257812 C 13.902344 6.257812 13.886719 6.257812 13.867188 6.257812 C 13.816406 6.035156 13.816406 5.8125 13.917969 5.605469 C 13.933594 5.589844 13.953125 5.570312 13.96875 5.554688 Z M 13.96875 5.554688 "/>
<path style=" stroke:none;fill-rule:nonzero;fill:rgb(67.843139%,70.588237%,62.352943%);fill-opacity:1;" d="M 11.972656 16.527344 C 12.042969 16.535156 12.089844 16.546875 12.148438 16.585938 C 12.1875 16.667969 12.179688 16.75 12.171875 16.839844 C 12.144531 16.925781 12.125 16.9375 12.046875 16.988281 C 11.988281 17 11.988281 17 11.921875 16.988281 C 11.851562 16.941406 11.808594 16.902344 11.785156 16.816406 C 11.78125 16.722656 11.792969 16.671875 11.839844 16.585938 C 11.898438 16.535156 11.898438 16.535156 11.972656 16.527344 Z M 11.972656 16.527344 "/>
<path style=" stroke:none;fill-rule:nonzero;fill:rgb(95.686275%,95.686275%,92.54902%);fill-opacity:1;" d="M 12.796875 16.4375 C 12.859375 16.472656 12.894531 16.507812 12.945312 16.5625 C 12.945312 16.585938 12.945312 16.613281 12.945312 16.636719 C 12.914062 16.636719 12.878906 16.636719 12.847656 16.636719 C 12.828125 16.617188 12.828125 16.617188 12.8125 16.601562 C 12.769531 16.554688 12.769531 16.554688 12.699219 16.550781 C 12.621094 16.558594 12.621094 16.558594 12.5625 16.601562 C 12.503906 16.6875 12.503906 16.738281 12.523438 16.839844 C 12.578125 16.917969 12.617188 16.957031 12.710938 16.976562 C 12.773438 16.96875 12.773438 16.96875 12.808594 16.914062 C 12.820312 16.898438 12.832031 16.878906 12.847656 16.863281 C 12.914062 16.859375 12.914062 16.859375 12.96875 16.863281 C 12.910156 17.003906 12.910156 17.003906 12.855469 17.050781 C 12.738281 17.082031 12.636719 17.082031 12.527344 17.035156 C 12.425781 16.949219 12.402344 16.867188 12.382812 16.738281 C 12.386719 16.632812 12.433594 16.574219 12.507812 16.496094 C 12.59375 16.421875 12.6875 16.425781 12.796875 16.4375 Z M 12.796875 16.4375 "/>
<path style=" stroke:none;fill-rule:nonzero;fill:rgb(95.686275%,95.294118%,92.156863%);fill-opacity:1;" d="M 10.898438 16.664062 C 10.980469 16.730469 10.996094 16.773438 11.011719 16.878906 C 11 16.964844 11 16.964844 10.960938 17.027344 C 10.875 17.078125 10.824219 17.078125 10.726562 17.066406 C 10.664062 17.027344 10.664062 17.027344 10.625 16.964844 C 10.605469 16.863281 10.609375 16.789062 10.664062 16.699219 C 10.75 16.648438 10.800781 16.648438 10.898438 16.664062 Z M 10.898438 16.664062 "/>
<path style=" stroke:none;fill-rule:nonzero;fill:rgb(95.294118%,95.294118%,92.156863%);fill-opacity:1;" d="M 10.425781 16.203125 C 10.476562 16.210938 10.476562 16.210938 10.527344 16.25 C 10.566406 16.355469 10.566406 16.445312 10.527344 16.546875 C 10.453125 16.605469 10.394531 16.601562 10.304688 16.597656 C 10.25 16.585938 10.25 16.585938 10.199219 16.550781 C 10.164062 16.457031 10.167969 16.386719 10.175781 16.285156 C 10.246094 16.191406 10.316406 16.199219 10.425781 16.203125 Z M 10.425781 16.203125 "/>
<path style=" stroke:none;fill-rule:nonzero;fill:rgb(92.54902%,92.54902%,89.019608%);fill-opacity:1;" d="M 8.382812 16.210938 C 8.382812 16.492188 8.382812 16.773438 8.382812 17.066406 C 8.339844 17.066406 8.296875 17.066406 8.257812 17.066406 C 8.257812 16.824219 8.257812 16.582031 8.257812 16.335938 C 8.214844 16.335938 8.175781 16.335938 8.132812 16.335938 C 8.15625 16.261719 8.15625 16.261719 8.199219 16.230469 C 8.257812 16.210938 8.257812 16.210938 8.382812 16.210938 Z M 8.382812 16.210938 "/>
<path style=" stroke:none;fill-rule:nonzero;fill:rgb(92.54902%,92.941177%,89.019608%);fill-opacity:1;" d="M 13.742188 16.183594 C 13.785156 16.183594 13.824219 16.183594 13.867188 16.183594 C 13.867188 16.46875 13.867188 16.75 13.867188 17.039062 C 13.808594 17.050781 13.808594 17.050781 13.742188 17.066406 C 13.742188 16.773438 13.742188 16.484375 13.742188 16.183594 Z M 13.742188 16.183594 "/>
<path style=" stroke:none;fill-rule:nonzero;fill:rgb(69.803923%,72.156864%,64.313728%);fill-opacity:1;" d="M 9.128906 13.21875 C 9.441406 13.476562 9.679688 13.785156 9.726562 14.199219 C 9.65625 14.132812 9.605469 14.066406 9.554688 13.984375 C 9.539062 13.960938 9.527344 13.941406 9.511719 13.917969 C 9.5 13.894531 9.484375 13.871094 9.46875 13.847656 C 9.457031 13.824219 9.441406 13.800781 9.425781 13.777344 C 9.386719 13.707031 9.34375 13.640625 9.304688 13.570312 C 9.292969 13.554688 9.28125 13.535156 9.273438 13.519531 C 9.128906 13.28125 9.128906 13.28125 9.128906 13.21875 Z M 9.128906 13.21875 "/>
<path style=" stroke:none;fill-rule:nonzero;fill:rgb(95.686275%,95.294118%,92.156863%);fill-opacity:1;" d="M 10.777344 16.210938 C 10.808594 16.21875 10.839844 16.226562 10.875 16.234375 C 10.863281 16.253906 10.855469 16.273438 10.84375 16.292969 C 10.800781 16.363281 10.761719 16.433594 10.722656 16.503906 C 10.703125 16.535156 10.6875 16.566406 10.667969 16.597656 C 10.578125 16.753906 10.488281 16.910156 10.402344 17.066406 C 10.367188 17.066406 10.335938 17.066406 10.300781 17.066406 C 10.332031 16.957031 10.375 16.867188 10.429688 16.769531 C 10.445312 16.746094 10.460938 16.71875 10.476562 16.691406 C 10.492188 16.664062 10.507812 16.636719 10.523438 16.609375 C 10.539062 16.582031 10.554688 16.554688 10.574219 16.527344 C 10.699219 16.308594 10.699219 16.308594 10.777344 16.210938 Z M 10.777344 16.210938 "/>
<path style=" stroke:none;fill-rule:nonzero;fill:rgb(98.039216%,97.647059%,94.901961%);fill-opacity:1;" d="M 11.449219 16.183594 C 11.480469 16.183594 11.515625 16.183594 11.546875 16.183594 C 11.546875 16.476562 11.546875 16.765625 11.546875 17.066406 C 11.515625 17.066406 11.484375 17.066406 11.449219 17.066406 C 11.449219 16.773438 11.449219 16.484375 11.449219 16.183594 Z M 11.449219 16.183594 "/>
<path style=" stroke:none;fill-rule:nonzero;fill:rgb(69.01961%,71.764708%,63.529414%);fill-opacity:1;" d="M 6.882812 10.882812 C 6.9375 10.964844 6.9375 10.988281 6.933594 11.082031 C 6.84375 11.140625 6.765625 11.136719 6.660156 11.132812 C 6.625 10.972656 6.625 10.972656 6.660156 10.910156 C 6.738281 10.867188 6.800781 10.871094 6.882812 10.882812 Z M 6.882812 10.882812 "/>
<path style=" stroke:none;fill-rule:nonzero;fill:rgb(69.01961%,71.372551%,63.529414%);fill-opacity:1;" d="M 12.582031 10.398438 C 12.671875 10.40625 12.671875 10.40625 12.71875 10.445312 C 12.75 10.511719 12.753906 10.558594 12.746094 10.632812 C 12.667969 10.675781 12.613281 10.6875 12.523438 10.679688 C 12.46875 10.597656 12.464844 10.527344 12.472656 10.429688 C 12.496094 10.40625 12.496094 10.40625 12.582031 10.398438 Z M 12.582031 10.398438 "/>
<path style=" stroke:none;fill-rule:nonzero;fill:rgb(68.627453%,71.372551%,63.137257%);fill-opacity:1;" d="M 6.371094 10.433594 C 6.441406 10.457031 6.472656 10.46875 6.511719 10.53125 C 6.507812 10.605469 6.507812 10.605469 6.484375 10.679688 C 6.410156 10.730469 6.410156 10.730469 6.363281 10.730469 C 6.285156 10.695312 6.253906 10.648438 6.210938 10.582031 C 6.210938 10.527344 6.210938 10.527344 6.234375 10.480469 C 6.3125 10.429688 6.3125 10.429688 6.371094 10.433594 Z M 6.371094 10.433594 "/>
<path style=" stroke:none;fill-rule:nonzero;fill:rgb(68.235296%,70.980394%,62.7451%);fill-opacity:1;" d="M 6.160156 11.160156 C 6.207031 11.203125 6.207031 11.203125 6.234375 11.257812 C 6.230469 11.324219 6.214844 11.351562 6.179688 11.402344 C 6.136719 11.433594 6.136719 11.433594 6.035156 11.433594 C 5.960938 11.320312 5.960938 11.320312 5.9375 11.257812 C 5.949219 11.199219 5.949219 11.199219 5.988281 11.160156 C 6.066406 11.132812 6.085938 11.128906 6.160156 11.160156 Z M 6.160156 11.160156 "/>
<path style=" stroke:none;fill-rule:nonzero;fill:rgb(68.235296%,70.980394%,62.7451%);fill-opacity:1;" d="M 12.335938 10.953125 C 12.421875 10.957031 12.421875 10.957031 12.472656 11.007812 C 12.476562 11.082031 12.476562 11.082031 12.472656 11.160156 C 12.457031 11.175781 12.4375 11.191406 12.421875 11.210938 C 12.367188 11.207031 12.367188 11.207031 12.304688 11.199219 C 12.277344 11.195312 12.277344 11.195312 12.246094 11.191406 C 12.222656 11.1875 12.222656 11.1875 12.199219 11.183594 C 12.195312 11.097656 12.195312 11.097656 12.199219 11.007812 C 12.246094 10.957031 12.246094 10.957031 12.335938 10.953125 Z M 12.335938 10.953125 "/>
<path style=" stroke:none;fill-rule:nonzero;fill:rgb(67.843139%,70.588237%,62.7451%);fill-opacity:1;" d="M 11.949219 10.582031 C 11.992188 10.609375 11.992188 10.609375 12.023438 10.65625 C 12.019531 10.734375 12.019531 10.734375 11.996094 10.808594 C 11.921875 10.855469 11.921875 10.855469 11.875 10.855469 C 11.792969 10.816406 11.765625 10.757812 11.722656 10.679688 C 11.75 10.605469 11.75 10.605469 11.792969 10.574219 C 11.859375 10.550781 11.886719 10.554688 11.949219 10.582031 Z M 11.949219 10.582031 "/>
<path style=" stroke:none;fill-rule:nonzero;fill:rgb(67.843139%,70.588237%,62.352943%);fill-opacity:1;" d="M 8.03125 12.289062 C 8.085938 12.371094 8.09375 12.398438 8.082031 12.492188 C 8 12.542969 7.953125 12.558594 7.855469 12.566406 C 7.808594 12.515625 7.808594 12.515625 7.804688 12.425781 C 7.804688 12.398438 7.804688 12.367188 7.808594 12.339844 C 7.882812 12.292969 7.941406 12.277344 8.03125 12.289062 Z M 8.03125 12.289062 "/>
<path style=" stroke:none;fill-rule:nonzero;fill:rgb(67.843139%,70.588237%,62.7451%);fill-opacity:1;" d="M 7.484375 12.742188 C 7.527344 12.820312 7.53125 12.847656 7.53125 12.941406 C 7.441406 13 7.363281 12.996094 7.257812 12.992188 C 7.25 12.839844 7.25 12.839844 7.257812 12.792969 C 7.34375 12.734375 7.382812 12.738281 7.484375 12.742188 Z M 7.484375 12.742188 "/>
<path style=" stroke:none;fill-rule:nonzero;fill:rgb(68.235296%,70.980394%,62.7451%);fill-opacity:1;" d="M 6.910156 10.253906 C 6.917969 10.3125 6.925781 10.371094 6.933594 10.429688 C 6.84375 10.492188 6.792969 10.484375 6.683594 10.480469 C 6.660156 10.453125 6.660156 10.453125 6.652344 10.367188 C 6.65625 10.339844 6.65625 10.308594 6.660156 10.277344 C 6.757812 10.214844 6.800781 10.234375 6.910156 10.253906 Z M 6.910156 10.253906 "/>
<path style=" stroke:none;fill-rule:nonzero;fill:rgb(67.843139%,70.588237%,62.352943%);fill-opacity:1;" d="M 6.335938 11.652344 C 6.410156 11.660156 6.410156 11.660156 6.460938 11.710938 C 6.464844 11.800781 6.464844 11.800781 6.460938 11.886719 C 6.453125 11.894531 6.445312 11.902344 6.433594 11.914062 C 6.398438 11.910156 6.359375 11.90625 6.320312 11.902344 C 6.300781 11.898438 6.28125 11.898438 6.257812 11.894531 C 6.242188 11.890625 6.226562 11.890625 6.210938 11.886719 C 6.1875 11.8125 6.179688 11.777344 6.210938 11.703125 C 6.261719 11.660156 6.261719 11.660156 6.335938 11.652344 Z M 6.335938 11.652344 "/>
<path style=" stroke:none;fill-rule:nonzero;fill:rgb(69.803923%,72.156864%,64.705884%);fill-opacity:1;" d="M 13.324219 16.757812 C 13.355469 16.757812 13.355469 16.757812 13.386719 16.761719 C 13.414062 16.761719 13.414062 16.761719 13.445312 16.761719 C 13.46875 16.761719 13.46875 16.761719 13.496094 16.761719 C 13.480469 16.898438 13.480469 16.898438 13.425781 16.960938 C 13.359375 16.996094 13.320312 17 13.246094 16.988281 C 13.226562 16.972656 13.210938 16.957031 13.195312 16.9375 C 13.203125 16.84375 13.214844 16.769531 13.324219 16.757812 Z M 13.324219 16.757812 "/>
<path style=" stroke:none;fill-rule:nonzero;fill:rgb(69.01961%,71.764708%,63.921571%);fill-opacity:1;" d="M 10.75 16.738281 C 10.824219 16.75 10.824219 16.75 10.898438 16.761719 C 10.902344 16.847656 10.902344 16.847656 10.898438 16.9375 C 10.882812 16.957031 10.867188 16.972656 10.851562 16.988281 C 10.785156 16.980469 10.785156 16.980469 10.726562 16.964844 C 10.710938 16.894531 10.710938 16.894531 10.699219 16.8125 C 10.71875 16.789062 10.734375 16.765625 10.75 16.738281 Z M 10.75 16.738281 "/>
<path style=" stroke:none;fill-rule:nonzero;fill:rgb(68.235296%,70.980394%,63.137257%);fill-opacity:1;" d="M 10.367188 16.28125 C 10.425781 16.285156 10.425781 16.285156 10.453125 16.3125 C 10.453125 16.398438 10.453125 16.398438 10.453125 16.488281 C 10.425781 16.511719 10.425781 16.511719 10.367188 16.515625 C 10.300781 16.511719 10.300781 16.511719 10.25 16.460938 C 10.246094 16.398438 10.246094 16.398438 10.25 16.335938 C 10.300781 16.285156 10.300781 16.285156 10.367188 16.28125 Z M 10.367188 16.28125 "/>
<path style=" stroke:none;fill-rule:nonzero;fill:rgb(72.549021%,74.901962%,67.450982%);fill-opacity:1;" d="M 9.429688 12.792969 C 9.632812 12.792969 9.839844 12.792969 10.050781 12.792969 C 9.976562 12.867188 9.914062 12.871094 9.8125 12.871094 C 9.679688 12.871094 9.558594 12.847656 9.429688 12.816406 C 9.429688 12.808594 9.429688 12.800781 9.429688 12.792969 Z M 9.429688 12.792969 "/>
<path style=" stroke:none;fill-rule:nonzero;fill:rgb(72.156864%,74.509805%,67.058825%);fill-opacity:1;" d="M 15.515625 9.300781 C 15.53125 9.308594 15.546875 9.316406 15.566406 9.324219 C 15.453125 9.476562 15.335938 9.605469 15.191406 9.726562 C 15.175781 9.71875 15.15625 9.710938 15.140625 9.699219 C 15.152344 9.691406 15.160156 9.679688 15.171875 9.667969 C 15.21875 9.621094 15.265625 9.574219 15.3125 9.527344 C 15.332031 9.511719 15.347656 9.496094 15.363281 9.480469 C 15.378906 9.464844 15.394531 9.449219 15.410156 9.429688 C 15.425781 9.417969 15.441406 9.402344 15.453125 9.386719 C 15.492188 9.351562 15.492188 9.351562 15.515625 9.300781 Z M 15.515625 9.300781 "/>
<path style=" stroke:none;fill-rule:nonzero;fill:rgb(72.941178%,75.294119%,67.843139%);fill-opacity:1;" d="M 9.152344 12.96875 C 9.226562 12.96875 9.300781 12.96875 9.378906 12.96875 C 9.371094 12.992188 9.363281 13.019531 9.355469 13.042969 C 9.296875 13.039062 9.238281 13.027344 9.179688 13.019531 C 9.171875 13 9.164062 12.984375 9.152344 12.96875 Z M 9.152344 12.96875 "/>
</g>
</svg>
